<?xml version="1.0" standalone="no"?>
<!DOCTYPE svg PUBLIC "-//W3C//DTD SVG 20010904//EN"
 "http://www.w3.org/TR/2001/REC-SVG-20010904/DTD/svg10.dtd">
<svg version="1.0" xmlns="http://www.w3.org/2000/svg"
 width="512.000000pt" height="512.000000pt" viewBox="0 0 512.000000 512.000000"
 preserveAspectRatio="xMidYMid meet">

<g transform="translate(0.000000,512.000000) scale(0.100000,-0.100000)"
fill="#000000" stroke="none">
<path d="M920 4524 c-19 -2 -87 -9 -150 -15 -276 -25 -529 -71 -627 -114 -72
-32 -77 -46 -63 -169 57 -512 506 -3059 584 -3321 13 -42 33 -68 135 -169 114
-114 121 -119 172 -127 30 -5 194 -13 365 -19 347 -12 662 -1 751 25 48 14 54
19 76 68 53 112 173 515 313 1047 41 157 78 293 82 303 6 14 13 -1 26 -55 75
-295 289 -1005 335 -1111 22 -51 239 -268 279 -279 15 -5 147 -13 295 -20 205
-9 316 -9 475 0 308 18 373 37 400 117 28 84 229 1026 397 1855 154 765 247
1265 280 1513 l6 49 -131 133 c-122 123 -136 134 -188 149 -188 51 -895 129
-1016 111 l-43 -7 -31 -166 c-45 -240 -96 -536 -146 -860 -39 -250 -56 -334
-56 -279 0 28 -168 711 -216 880 -29 102 -55 173 -71 194 -14 18 -69 71 -123
118 -87 76 -105 87 -156 98 -80 16 -857 17 -895 0 -23 -10 -33 -33 -77 -165
-64 -193 -142 -462 -228 -789 -36 -140 -70 -260 -74 -268 -4 -8 -10 13 -14 50
-11 102 -104 744 -124 860 l-18 106 -130 129 -129 129 -115 1 c-63 1 -131 0
-150 -2z m228 -179 c69 -448 195 -1408 227 -1740 23 -236 16 -217 77 -213 l52
3 24 105 c125 549 331 1329 449 1702 l56 176 156 7 c157 8 557 1 643 -11 l46
-6 31 -113 c99 -360 393 -1630 427 -1841 6 -41 7 -42 56 -48 28 -4 52 -5 54
-3 3 2 11 62 19 133 43 383 226 1565 286 1847 l11 50 142 -6 c217 -10 656 -65
779 -98 31 -8 37 -14 37 -36 0 -123 -350 -1892 -596 -3007 -79 -360 -64 -321
-132 -335 -113 -23 -438 -33 -707 -22 -141 6 -260 13 -265 16 -35 22 -378
1218 -506 1762 -13 59 -27 116 -30 126 -4 13 -17 17 -59 17 -54 0 -54 0 -64
-37 -5 -21 -46 -182 -90 -358 -140 -560 -264 -1012 -357 -1295 -30 -91 -58
-171 -63 -178 -17 -27 -162 -34 -601 -29 -239 3 -447 9 -461 12 -18 5 -29 15
-33 33 -57 270 -88 424 -141 712 -214 1155 -442 2527 -433 2608 3 25 10 29 88
50 164 43 650 101 820 98 l45 -1 13 -80z m194 -115 c4 -3 12 -28 17 -56 16
-81 87 -575 131 -908 l41 -308 -27 -119 c-15 -66 -31 -119 -34 -119 -4 0 -10
33 -14 73 -13 135 -96 781 -146 1131 -28 192 -50 356 -50 364 0 11 12 5 38
-19 20 -18 40 -36 44 -39z m1743 -65 c37 -79 116 -385 261 -1010 l65 -280 -12
-93 c-6 -51 -13 -91 -15 -90 -2 2 -26 107 -54 233 -79 355 -174 764 -245 1050
-36 143 -65 264 -65 269 0 20 43 -32 65 -79z m1800 -35 c54 -54 59 -64 57 -98
-14 -184 -345 -1854 -587 -2962 -88 -401 -76 -366 -133 -379 -106 -24 -453
-34 -729 -23 l-267 12 -53 52 c-29 29 -53 55 -53 58 0 3 82 2 182 -2 101 -5
262 -5 358 -2 285 9 426 31 465 74 21 23 55 166 174 720 217 1013 463 2261
506 2563 4 26 10 47 14 47 4 0 33 -27 66 -60z m-2415 -1699 l42 -169 -86 -328
c-143 -552 -269 -992 -327 -1143 -22 -58 -36 -81 -52 -86 -70 -21 -923 -21
-1048 0 -26 4 -51 21 -87 58 l-51 52 462 0 c506 0 560 5 596 52 56 70 200 551
411 1371 52 199 94 362 96 362 1 0 21 -76 44 -169z"/>
</g>
</svg>
