<svg version="1.1" xmlns="http://www.w3.org/2000/svg" xmlns:xlink="http://www.w3.org/1999/xlink" width="512.000000pt" height="512.000000pt" viewBox="0,0,256,256"><g fill="#ffffff" fill-rule="nonzero" stroke="none" stroke-width="1" stroke-linecap="butt" stroke-linejoin="miter" stroke-miterlimit="10" stroke-dasharray="" stroke-dashoffset="0" font-family="none" font-weight="none" font-size="none" text-anchor="none" style="mix-blend-mode: normal"><g transform="translate(-0.11897,-0.80894) scale(0.5,0.5)"><g transform="translate(0,512) scale(0.1,-0.1)"><path d="M920,4524c-19,-2 -87,-9 -150,-15c-276,-25 -529,-71 -627,-114c-72,-32 -77,-46 -63,-169c57,-512 506,-3059 584,-3321c13,-42 33,-68 135,-169c114,-114 121,-119 172,-127c30,-5 194,-13 365,-19c347,-12 662,-1 751,25c48,14 54,19 76,68c53,112 173,515 313,1047c41,157 78,293 82,303c6,14 13,-1 26,-55c75,-295 289,-1005 335,-1111c22,-51 239,-268 279,-279c15,-5 147,-13 295,-20c205,-9 316,-9 475,0c308,18 373,37 400,117c28,84 229,1026 397,1855c154,765 247,1265 280,1513l6,49l-131,133c-122,123 -136,134 -188,149c-188,51 -895,129 -1016,111l-43,-7l-31,-166c-45,-240 -96,-536 -146,-860c-39,-250 -56,-334 -56,-279c0,28 -168,711 -216,880c-29,102 -55,173 -71,194c-14,18 -69,71 -123,118c-87,76 -105,87 -156,98c-80,16 -857,17 -895,0c-23,-10 -33,-33 -77,-165c-64,-193 -142,-462 -228,-789c-36,-140 -70,-260 -74,-268c-4,-8 -10,13 -14,50c-11,102 -104,744 -124,860l-18,106l-130,129l-129,129l-115,1c-63,1 -131,0 -150,-2zM1148,4345c69,-448 195,-1408 227,-1740c23,-236 16,-217 77,-213l52,3l24,105c125,549 331,1329 449,1702l56,176l156,7c157,8 557,1 643,-11l46,-6l31,-113c99,-360 393,-1630 427,-1841c6,-41 7,-42 56,-48c28,-4 52,-5 54,-3c3,2 11,62 19,133c43,383 226,1565 286,1847l11,50l142,-6c217,-10 656,-65 779,-98c31,-8 37,-14 37,-36c0,-123 -350,-1892 -596,-3007c-79,-360 -64,-321 -132,-335c-113,-23 -438,-33 -707,-22c-141,6 -260,13 -265,16c-35,22 -378,1218 -506,1762c-13,59 -27,116 -30,126c-4,13 -17,17 -59,17c-54,0 -54,0 -64,-37c-5,-21 -46,-182 -90,-358c-140,-560 -264,-1012 -357,-1295c-30,-91 -58,-171 -63,-178c-17,-27 -162,-34 -601,-29c-239,3 -447,9 -461,12c-18,5 -29,15 -33,33c-57,270 -88,424 -141,712c-214,1155 -442,2527 -433,2608c3,25 10,29 88,50c164,43 650,101 820,98l45,-1zM1342,4230c4,-3 12,-28 17,-56c16,-81 87,-575 131,-908l41,-308l-27,-119c-15,-66 -31,-119 -34,-119c-4,0 -10,33 -14,73c-13,135 -96,781 -146,1131c-28,192 -50,356 -50,364c0,11 12,5 38,-19c20,-18 40,-36 44,-39zM3085,4165c37,-79 116,-385 261,-1010l65,-280l-12,-93c-6,-51 -13,-91 -15,-90c-2,2 -26,107 -54,233c-79,355 -174,764 -245,1050c-36,143 -65,264 -65,269c0,20 43,-32 65,-79zM4885,4130c54,-54 59,-64 57,-98c-14,-184 -345,-1854 -587,-2962c-88,-401 -76,-366 -133,-379c-106,-24 -453,-34 -729,-23l-267,12l-53,52c-29,29 -53,55 -53,58c0,3 82,2 182,-2c101,-5 262,-5 358,-2c285,9 426,31 465,74c21,23 55,166 174,720c217,1013 463,2261 506,2563c4,26 10,47 14,47c4,0 33,-27 66,-60zM2470,2431l42,-169l-86,-328c-143,-552 -269,-992 -327,-1143c-22,-58 -36,-81 -52,-86c-70,-21 -923,-21 -1048,0c-26,4 -51,21 -87,58l-51,52h462c506,0 560,5 596,52c56,70 200,551 411,1371c52,199 94,362 96,362c1,0 21,-76 44,-169z"></path></g></g></g></svg>