<svg version="1.1" xmlns="http://www.w3.org/2000/svg" xmlns:xlink="http://www.w3.org/1999/xlink" width="32.000000pt" height="32.000000pt" viewBox="0,0,256,256"><g fill="#ffffff" fill-rule="nonzero" stroke="none" stroke-width="1" stroke-linecap="butt" stroke-linejoin="miter" stroke-miterlimit="10" stroke-dasharray="" stroke-dashoffset="0" font-family="none" font-weight="none" font-size="none" text-anchor="none" style="mix-blend-mode: normal"><g transform="translate(4.07686,-3.52943) scale(8,8)"><g transform="translate(0,32) scale(0.1,-0.1)"><path d="M5,300c-7,-11 -6,-11 40,-13c30,-2 30,-2 66,-142c27,-108 40,-141 53,-143c11,-2 19,4 23,17c7,27 30,27 38,0c9,-26 39,-21 43,8c3,20 -1,22 -60,25c-50,2 -63,6 -66,20c-3,16 5,18 56,18h60l25,63l25,62l-101,5l-100,5l-10,30c-5,17 -14,36 -20,43c-11,14 -63,16 -72,2zM290,208c0,-2 -9,-25 -19,-53l-19,-50l-60,-3c-59,-3 -59,-2 -65,26c-3,16 -9,41 -13,56l-6,26h91c50,0 91,-1 91,-2zM174,19c-3,-5 -10,-7 -15,-3c-5,3 -7,10 -3,15c3,5 10,7 15,3c5,-3 7,-10 3,-15zM260,25c0,-8 -4,-15 -10,-15c-5,0 -10,7 -10,15c0,8 5,15 10,15c6,0 10,-7 10,-15z"></path></g></g></g></svg>